<svg xmlns="http://www.w3.org/2000/svg" xmlns:xlink="http://www.w3.org/1999/xlink" contentStyleType="text/css" data-diagram-type="DESCRIPTION" height="1106.25px" preserveAspectRatio="none" style="width:3069px;height:1106px;background:#FFFFFF;" version="1.1" viewBox="0 0 3069 1106" width="3069.375px" zoomAndPan="magnify"><defs/><g><!--cluster DATA--><g class="cluster" data-entity="DATA" data-source-line="16" data-uid="ent0003" id="cluster_DATA"><rect fill="#E9F2FF" height="225.8812" rx="7.5" ry="7.5" style="stroke:#2F3A4A;stroke-width:1.875;" width="1376.25" x="868.125" y="13.125"/><text fill="#000000" font-family="sans-serif" font-size="26.25" font-weight="bold" lengthAdjust="spacing" textLength="62.3181" x="873.75" y="42.2534">Data</text></g><!--cluster CAL--><g class="cluster" data-entity="CAL" data-source-line="22" data-uid="ent0007" id="cluster_CAL"><rect fill="#DDEFE6" height="225.8625" rx="7.5" ry="7.5" style="stroke:#2F3A4A;stroke-width:1.875;" width="1213.125" x="1074.375" y="330.8812"/><text fill="#000000" font-family="sans-serif" font-size="26.25" font-weight="bold" lengthAdjust="spacing" textLength="163.9856" x="1080" y="360.0097">Calibrations</text></g><!--cluster EST--><g class="cluster" data-entity="EST" data-source-line="27" data-uid="ent0010" id="cluster_EST"><rect fill="#FFF4E5" height="194.9625" rx="7.5" ry="7.5" style="stroke:#2F3A4A;stroke-width:1.875;" width="1511.25" x="13.125" y="630.8812"/><text fill="#000000" font-family="sans-serif" font-size="26.25" font-weight="bold" lengthAdjust="spacing" textLength="144.8492" x="18.75" y="660.0097">Estimators</text></g><!--cluster OUT--><g class="cluster" data-entity="OUT" data-source-line="32" data-uid="ent0013" id="cluster_OUT"><rect fill="#ECECEC" height="194.9625" rx="7.5" ry="7.5" style="stroke:#2F3A4A;stroke-width:1.875;" width="988.125" x="746.25" y="901.0875"/><text fill="#000000" font-family="sans-serif" font-size="26.25" font-weight="bold" lengthAdjust="spacing" textLength="109.6014" x="751.875" y="930.2159">Outputs</text></g><!--entity LOGS--><g class="entity" data-entity="LOGS" data-source-line="17" data-uid="ent0004" id="entity_LOGS"><rect fill="#F1F1F1" height="130.2466" rx="7.5" ry="7.5" style="stroke:#2F3A4A;stroke-width:0.9375;" width="348.7958" x="898.1063" y="78.75"/><text fill="#000000" font-family="sans-serif" font-size="26.25" font-weight="bold" lengthAdjust="spacing" textLength="64.1895" x="916.8563" y="122.8784">Logs</text><text fill="#000000" font-family="sans-serif" font-size="26.25" font-weight="bold" lengthAdjust="spacing" textLength="311.2958" x="916.8563" y="153.7939">(prompts, completions,</text><text fill="#000000" font-family="sans-serif" font-size="26.25" font-weight="bold" lengthAdjust="spacing" textLength="288.891" x="916.8563" y="184.7095">logging policy props)</text></g><!--entity SCORES--><g class="entity" data-entity="SCORES" data-source-line="18" data-uid="ent0005" id="entity_SCORES"><rect fill="#F1F1F1" height="99.3311" rx="7.5" ry="7.5" style="stroke:#2F3A4A;stroke-width:0.9375;" width="421.6498" x="1311.675" y="94.2"/><text fill="#000000" font-family="sans-serif" font-size="26.25" font-weight="bold" lengthAdjust="spacing" textLength="198.349" x="1330.425" y="138.3284">Judge scores S</text><text fill="#000000" font-family="sans-serif" font-size="26.25" font-weight="bold" lengthAdjust="spacing" textLength="384.1498" x="1330.425" y="169.2439">(from LLM or human grader)</text></g><!--entity ORACLE--><g class="entity" data-entity="ORACLE" data-source-line="19" data-uid="ent0006" id="entity_ORACLE"><rect fill="#F1F1F1" height="99.3311" rx="7.5" ry="7.5" style="stroke:#2F3A4A;stroke-width:0.9375;" width="415.6641" x="1798.425" y="94.2"/><text fill="#000000" font-family="sans-serif" font-size="26.25" font-weight="bold" lengthAdjust="spacing" textLength="156.7822" x="1817.175" y="138.3284">Oracle slice</text><text fill="#000000" font-family="sans-serif" font-size="26.25" font-weight="bold" lengthAdjust="spacing" textLength="378.1641" x="1817.175" y="169.2439">(sampled &amp; human-labeled)</text></g><!--entity RC--><g class="entity" data-entity="RC" data-source-line="23" data-uid="ent0008" id="entity_RC"><rect fill="#F1F1F1" height="130.2466" rx="7.5" ry="7.5" style="stroke:#2F3A4A;stroke-width:0.9375;" width="593.9154" x="1664.2875" y="396.5062"/><text fill="#000000" font-family="sans-serif" font-size="26.25" font-weight="bold" lengthAdjust="spacing" textLength="253.9636" x="1683.0375" y="440.6347">Reward calibration</text><text fill="#000000" font-family="sans-serif" font-size="26.25" font-weight="bold" lengthAdjust="spacing" textLength="351.3373" x="1683.0375" y="471.5502">Learn f(S) on oracle labels</text><text fill="#000000" font-family="sans-serif" font-size="26.25" font-weight="bold" lengthAdjust="spacing" textLength="556.4154" x="1683.0375" y="502.4657">(maps judge scores to calibrated reward)</text></g><!--entity SIM--><g class="entity" data-entity="SIM" data-source-line="24" data-uid="ent0009" id="entity_SIM"><rect fill="#F1F1F1" height="130.2466" rx="7.5" ry="7.5" style="stroke:#2F3A4A;stroke-width:0.9375;" width="495.4266" x="1104.1688" y="396.5062"/><text fill="#000000" font-family="sans-serif" font-size="26.25" font-weight="bold" lengthAdjust="spacing" textLength="343.6725" x="1122.9188" y="440.6347">SIMCal weight calibration</text><text fill="#000000" font-family="sans-serif" font-size="26.25" font-weight="bold" lengthAdjust="spacing" textLength="457.9266" x="1122.9188" y="471.5502">Smooth &amp; stabilize policy weights</text><text fill="#000000" font-family="sans-serif" font-size="26.25" font-weight="bold" lengthAdjust="spacing" textLength="456.145" x="1122.9188" y="502.4657">(monotone in S, variance-capped)</text></g><!--entity CALIPS--><g class="entity" data-entity="CALIPS" data-source-line="28" data-uid="ent0011" id="entity_CALIPS"><rect fill="#F1F1F1" height="99.3311" rx="7.5" ry="7.5" style="stroke:#2F3A4A;stroke-width:0.9375;" width="576.0223" x="917.6062" y="696.5062"/><text fill="#000000" font-family="sans-serif" font-size="26.25" font-weight="bold" lengthAdjust="spacing" textLength="105.7178" x="936.3562" y="740.6347">Cal-IPS:</text><text fill="#000000" font-family="sans-serif" font-size="26.25" font-weight="bold" lengthAdjust="spacing" textLength="538.5223" x="936.3562" y="771.5502">Weighted average of calibrated rewards</text></g><!--entity DRCPO--><g class="entity" data-entity="DRCPO" data-source-line="29" data-uid="ent0012" id="entity_DRCPO"><rect fill="#F1F1F1" height="99.3311" rx="7.5" ry="7.5" style="stroke:#2F3A4A;stroke-width:0.9375;" width="809.0552" x="43.5938" y="696.5062"/><text fill="#000000" font-family="sans-serif" font-size="26.25" font-weight="bold" lengthAdjust="spacing" textLength="118.5864" x="62.3438" y="740.6347">DR-CPO:</text><text fill="#000000" font-family="sans-serif" font-size="26.25" font-weight="bold" lengthAdjust="spacing" textLength="771.5552" x="62.3438" y="771.5502">Weighted average of model residuals + predicted reward</text></g><!--entity OUT1--><g class="entity" data-entity="OUT1" data-source-line="33" data-uid="ent0014" id="entity_OUT1"><rect fill="#F1F1F1" height="99.3311" rx="7.5" ry="7.5" style="stroke:#2F3A4A;stroke-width:0.9375;" width="363.8947" x="776.175" y="966.7125"/><text fill="#000000" font-family="sans-serif" font-size="26.25" font-weight="bold" lengthAdjust="spacing" textLength="284.9817" x="794.925" y="1010.8409">Policy value estimate</text><text fill="#000000" font-family="sans-serif" font-size="26.25" font-weight="bold" lengthAdjust="spacing" textLength="326.3947" x="794.925" y="1041.7564">with confidence interval</text></g><!--entity OUT2--><g class="entity" data-entity="OUT2" data-source-line="34" data-uid="ent0015" id="entity_OUT2"><rect fill="#F1F1F1" height="99.3311" rx="7.5" ry="7.5" style="stroke:#2F3A4A;stroke-width:0.9375;" width="496.9647" x="1206.525" y="966.7125"/><text fill="#000000" font-family="sans-serif" font-size="26.25" font-weight="bold" lengthAdjust="spacing" textLength="158.9355" x="1225.275" y="1010.8409">Diagnostics</text><text fill="#000000" font-family="sans-serif" font-size="26.25" font-weight="bold" lengthAdjust="spacing" textLength="459.4647" x="1225.275" y="1041.7564">(ESS, tail risk, overlap, judge drift)</text></g><!--entity TITLE--><g class="entity" data-entity="TITLE" data-source-line="14" data-uid="ent0002" id="entity_TITLE"><rect fill="#FFFFFF" height="68.4155" rx="7.5" ry="7.5" style="stroke:#2F3A4A;stroke-width:0.9375;" width="778.7421" x="2280.6375" y="109.6687"/><text fill="#000000" font-family="sans-serif" font-size="26.25" font-weight="bold" lengthAdjust="spacing" textLength="741.2421" x="2299.3875" y="153.7972">Causal Judge Evaluation (CJE) &#8212; Engineering Overview</text></g><g class="entity" data-entity="GMN30" data-source-line="58" data-uid="ent0031" id="entity_GMN30"><path d="M2324.3813,380.475 L2324.3813,542.7614 L2790.6282,542.7614 L2790.6282,399.225 L2771.8782,380.475 L2324.3813,380.475" fill="#FEFFDD" style="stroke:#181818;stroke-width:0.9375;"/><path d="M2771.8782,380.475 L2771.8782,399.225 L2790.6282,399.225 L2771.8782,380.475" fill="#FEFFDD" style="stroke:#181818;stroke-width:1.875;"/><text fill="#000000" font-family="sans-serif" font-size="24.375" lengthAdjust="spacing" textLength="360.4358" x="2335.6313" y="413.4157">Stabilizes importance weights:</text><text fill="#000000" font-family="sans-serif" font-size="24.375" lengthAdjust="spacing" textLength="315.8752" x="2335.6313" y="442.1229">&#8226; mean-one normalization</text><text fill="#000000" font-family="sans-serif" font-size="24.375" lengthAdjust="spacing" textLength="317.4106" x="2335.6313" y="470.8302">&#8226; monotone in judge score</text><text fill="#000000" font-family="sans-serif" font-size="24.375" lengthAdjust="spacing" textLength="403.1158" x="2335.6313" y="499.5375">&#8226; variance cap to avoid heavy tails</text><text fill="#000000" font-family="sans-serif" font-size="24.375" lengthAdjust="spacing" textLength="426.8719" x="2335.6313" y="528.2448">&#8226; optional targeting for IPS accuracy</text></g><g class="entity" data-entity="GMN33" data-source-line="66" data-uid="ent0034" id="entity_GMN33"><path d="M1559.4563,679.3875 L1559.4563,812.9666 L1950.543,812.9666 L1950.543,698.1375 L1931.793,679.3875 L1559.4563,679.3875" fill="#FEFFDD" style="stroke:#181818;stroke-width:0.9375;"/><path d="M1931.793,679.3875 L1931.793,698.1375 L1950.543,698.1375 L1931.793,679.3875" fill="#FEFFDD" style="stroke:#181818;stroke-width:1.875;"/><text fill="#000000" font-family="sans-serif" font-size="24.375" lengthAdjust="spacing" textLength="322.1237" x="1570.7063" y="712.3282">Doubly Robust = combines</text><text fill="#000000" font-family="sans-serif" font-size="24.375" lengthAdjust="spacing" textLength="271.6479" x="1570.7063" y="741.0354">model predictions with</text><text fill="#000000" font-family="sans-serif" font-size="24.375" lengthAdjust="spacing" textLength="305.4849" x="1570.7063" y="769.7427">calibrated weights so that</text><text fill="#000000" font-family="sans-serif" font-size="24.375" lengthAdjust="spacing" textLength="351.7117" x="1570.7063" y="798.45">either is enough for accuracy.</text></g><!--link LOGS to SIM--><g class="link" data-entity-1="LOGS" data-entity-2="SIM" data-source-line="38" data-uid="lnk16" id="link_LOGS_SIM"><path d="M1115.8125,209.5125 C1136.2875,238.2937 1161.7313,272.1937 1186.875,300.8812 C1215.7125,333.7687 1242.0112,360.0443 1272.0112,388.0756" fill="none" id="LOGS-to-SIM" style="stroke:#6B7280;stroke-width:1.875;"/><polygon fill="#6B7280" points="1280.2312,395.7562,1273.0215,378.7552,1273.3812,389.3557,1262.7807,389.7153,1280.2312,395.7562" style="stroke:#6B7280;stroke-width:1.875;"/><text fill="#000000" font-family="sans-serif" font-size="24.375" lengthAdjust="spacing" textLength="231.134" x="1188.75" y="294.4469">base policy weights</text></g><!--link SCORES to SIM--><g class="link" data-entity-1="SCORES" data-entity-2="SIM" data-source-line="39" data-uid="lnk17" id="link_SCORES_SIM"><path d="M1494.8813,194.175 C1482.0375,216.825 1466.6625,244.2187 1453.125,269.0062 C1430.1,311.1 1410.0286,348.8454 1390.4723,385.9892" fill="none" id="SCORES-to-SIM" style="stroke:#6B7280;stroke-width:1.875;"/><polygon fill="#6B7280" points="1385.2312,395.9437,1399.7293,384.506,1389.5988,387.6483,1386.4565,377.5178,1385.2312,395.9437" style="stroke:#6B7280;stroke-width:1.875;"/><text fill="#000000" font-family="sans-serif" font-size="24.375" lengthAdjust="spacing" textLength="247.3563" x="1455" y="294.4469">index by judge score</text></g><!--link SCORES to RC--><g class="link" data-entity-1="SCORES" data-entity-2="RC" data-source-line="40" data-uid="lnk18" id="link_SCORES_RC"><path d="M1599,194.3625 C1633.3125,216.6 1674.0563,243.5812 1710,269.0062 C1767.6938,309.7875 1822.1389,351.0088 1870.7951,388.7151" fill="none" id="SCORES-to-RC" style="stroke:#6B7280;stroke-width:1.875;"/><polygon fill="#6B7280" points="1879.6875,395.6062,1870.943,379.3413,1872.2772,389.8636,1861.7548,391.1978,1879.6875,395.6062" style="stroke:#6B7280;stroke-width:1.875;"/></g><!--link ORACLE to RC--><g class="link" data-entity-1="ORACLE" data-entity-2="RC" data-source-line="41" data-uid="lnk19" id="link_ORACLE_RC"><path d="M1999.3125,194.1187 C1991.55,248.3062 1980.5286,325.2202 1971.9599,384.9577" fill="none" id="ORACLE-to-RC" style="stroke:#6B7280;stroke-width:1.875;"/><polygon fill="#6B7280" points="1970.3625,396.0937,1980.1825,380.4546,1971.6936,386.8137,1965.3345,378.3248,1970.3625,396.0937" style="stroke:#6B7280;stroke-width:1.875;"/><text fill="#000000" font-family="sans-serif" font-size="24.375" lengthAdjust="spacing" textLength="182.7649" x="1989.6563" y="294.4469">fit mapping f(S)</text></g><!--link RC to CALIPS--><g class="link" data-entity-1="RC" data-entity-2="CALIPS" data-source-line="44" data-uid="lnk20" id="link_RC_CALIPS"><path d="M1909.6313,527.6062 C1883.3625,555.3562 1849.0313,585.0375 1811.25,600.8812 C1752.7688,625.4062 1588.1812,602.25 1526.25,615.8812 C1448.3625,633.0375 1375.0848,662.3202 1312.8348,691.0264" fill="none" id="RC-to-CALIPS" style="stroke:#6B7280;stroke-width:1.875;"/><polygon fill="#6B7280" points="1302.6188,695.7375,1321.0836,695.4816,1311.1321,691.8116,1314.8021,681.8602,1302.6188,695.7375" style="stroke:#6B7280;stroke-width:1.875;"/></g><!--link RC to DRCPO--><g class="link" data-entity-1="RC" data-entity-2="DRCPO" data-source-line="45" data-uid="lnk21" id="link_RC_DRCPO"><path d="M1794.8625,527.6625 C1743.6938,544.8562 1686.75,561.5062 1633.125,571.7437 C1305.9563,634.2562 1213.1438,558.75 885,615.8812 C782.1938,633.7875 679.9389,663.8225 594.6452,692.1537" fill="none" id="RC-to-DRCPO" style="stroke:#6B7280;stroke-width:1.875;"/><polygon fill="#6B7280" points="583.9688,695.7,602.3476,697.4982,592.8658,692.7448,597.6192,683.2629,583.9688,695.7" style="stroke:#6B7280;stroke-width:1.875;"/></g><!--link SIM to CALIPS--><g class="link" data-entity-1="SIM" data-entity-2="CALIPS" data-source-line="46" data-uid="lnk22" id="link_SIM_CALIPS"><path d="M1318.6875,527.2125 C1292.0625,578.3437 1260.4348,639.0725 1236.1348,685.7225" fill="none" id="SIM-to-CALIPS" style="stroke:#6B7280;stroke-width:1.875;"/><polygon fill="#6B7280" points="1230.9375,695.7,1245.3851,684.1986,1235.2686,687.3854,1232.0818,677.2689,1230.9375,695.7" style="stroke:#6B7280;stroke-width:1.875;"/></g><!--link SIM to DRCPO--><g class="link" data-entity-1="SIM" data-entity-2="DRCPO" data-source-line="47" data-uid="lnk23" id="link_SIM_DRCPO"><path d="M1145.6625,527.5687 C981.3,578.6438 765.3746,645.7306 615.5996,692.2681" fill="none" id="SIM-to-DRCPO" style="stroke:#6B7280;stroke-width:1.875;"/><polygon fill="#6B7280" points="604.8562,695.6062,623.1967,697.7613,613.809,692.8245,618.7458,683.4368,604.8562,695.6062" style="stroke:#6B7280;stroke-width:1.875;"/></g><!--link CALIPS to OUT1--><g class="link" data-entity-1="CALIPS" data-entity-2="OUT1" data-source-line="50" data-uid="lnk24" id="link_CALIPS_OUT1"><path d="M1160.8125,796.3125 C1115.9438,844.5937 1055.0122,910.2069 1010.2747,958.3756" fill="none" id="CALIPS-to-OUT1" style="stroke:#6B7280;stroke-width:1.875;"/><polygon fill="#6B7280" points="1002.6188,966.6188,1019.5981,959.358,1008.9987,959.7495,1008.6072,949.1501,1002.6188,966.6188" style="stroke:#6B7280;stroke-width:1.875;"/></g><!--link DRCPO to OUT1--><g class="link" data-entity-1="DRCPO" data-entity-2="OUT1" data-source-line="51" data-uid="lnk25" id="link_DRCPO_OUT1"><path d="M541.0688,796.6125 C633.0188,844.65 762.9599,912.5471 854.9849,960.6221" fill="none" id="DRCPO-to-OUT1" style="stroke:#6B7280;stroke-width:1.875;"/><polygon fill="#6B7280" points="864.9563,965.8312,853.472,951.37,856.6468,961.4903,846.5265,964.6651,864.9563,965.8312" style="stroke:#6B7280;stroke-width:1.875;"/></g><!--link CALIPS to OUT2--><g class="link" data-entity-1="CALIPS" data-entity-2="OUT2" data-source-line="52" data-uid="lnk26" id="link_CALIPS_OUT2"><path d="M1250.7938,796.3125 C1295.9813,844.5937 1357.407,910.2356 1402.482,958.4044" fill="none" id="CALIPS-to-OUT2" style="stroke:#6B7280;stroke-width:1.875;"/><polygon fill="#6B7280" points="1410.1688,966.6188,1404.1148,949.1727,1403.7631,959.7734,1393.1623,959.4217,1410.1688,966.6188" style="stroke:#6B7280;stroke-width:1.875;"/></g><!--link DRCPO to OUT2--><g class="link" data-entity-1="DRCPO" data-entity-2="OUT2" data-source-line="53" data-uid="lnk27" id="link_DRCPO_OUT2"><path d="M666,796.7437 C735.7875,811.6875 813.5063,827.6625 885,840.8437 C1012.7438,864.3937 1049.3438,848.7188 1173.75,886.0875 C1240.3125,906.0937 1301.4663,933.6431 1355.5788,960.9994" fill="none" id="DRCPO-to-OUT2" style="stroke:#6B7280;stroke-width:1.875;"/><polygon fill="#6B7280" points="1365.6188,966.075,1353.9426,951.7683,1357.2521,961.8453,1347.1751,965.1548,1365.6188,966.075" style="stroke:#6B7280;stroke-width:1.875;"/></g><!--link SIM to OUT2--><g class="link" data-entity-1="SIM" data-entity-2="OUT2" data-source-line="54" data-uid="lnk28" id="link_SIM_OUT2"><path d="M1496.85,527.4187 C1539.45,544.0687 1586.6063,560.475 1631.25,571.7437 C1707.8063,591.0563 1931.5125,556.7063 1983.75,615.8812 C2049.9,690.8437 2042.3813,759.8625 1983.75,840.8437 C1919.4375,929.6625 1819.2254,971.5774 1715.3316,993.2524" fill="none" id="SIM-to-OUT2" style="stroke:#6B7280;stroke-width:1.875;"/><polygon fill="#6B7280" points="1704.3188,995.55,1722.3698,999.4456,1713.4962,993.6353,1719.3064,984.7617,1704.3188,995.55" style="stroke:#6B7280;stroke-width:1.875;"/></g><!--link RC to OUT2--><g class="link" data-entity-1="RC" data-entity-2="OUT2" data-source-line="55" data-uid="lnk29" id="link_RC_OUT2"><path d="M2011.35,527.25 C2028.75,553.2375 2046.1125,584.5125 2055,615.8812 C2082.225,712.0875 2102.8313,753.0562 2055,840.8437 C2019.7125,905.6062 1863.6511,948.4959 1714.7199,976.4147" fill="none" id="RC-to-OUT2" style="stroke:#6B7280;stroke-width:1.875;"/><polygon fill="#6B7280" points="1703.6625,978.4875,1721.6305,982.7499,1712.877,976.7601,1718.8667,968.0067,1703.6625,978.4875" style="stroke:#6B7280;stroke-width:1.875;"/></g><!--link SIM to GMN30--><g class="link" data-entity-1="SIM" data-entity-2="GMN30" data-source-line="58" data-uid="lnk32" id="link_SIM_GMN30"><path d="M1439.3625,395.775 C1499.175,355.0312 1582.1625,306.5062 1664.0625,284.9437 C1790.9813,251.5125 2127.9938,250.6687 2254.6875,284.9437 C2324.3063,303.7687 2394.3563,343.0125 2449.5188,379.7625" fill="none" id="SIM-GMN30" style="stroke:#6B7280;stroke-width:1.875;stroke-dasharray:13.125,13.125;"/></g><!--link DRCPO to GMN33--><g class="link" data-entity-1="DRCPO" data-entity-2="GMN33" data-source-line="66" data-uid="lnk35" id="link_DRCPO_GMN33"><path d="M568.1813,695.6625 C661.5938,659.2125 795.45,613.1625 917.8125,593.8125 C1043.7563,573.9 1368.4125,560.775 1491.5625,593.8125 C1554.075,610.5937 1617.075,646.2 1665.7875,678.7687" fill="none" id="DRCPO-GMN33" style="stroke:#6B7280;stroke-width:1.875;stroke-dasharray:13.125,13.125;"/></g><!--SRC=[TLN1Zjis4BthAmPPeDr5xBPnqoHTf0iuibniuC0Boq4lUnb9jCo6uWWaPSSf0kJK3mZo1Vsq_P8CASkMlUZkmQ0vy-RDctcq_I1rZGOhi6iiQ2jr2IjKLaJsS5FK4fwz-gN_ZLXXeznIV7HZ9KjT2Ur0YPNhnIn4xb2NIi0_4S226bt4PBGmy8hFRyWKmiIaoC35QFhh-FcOlvsITgdRSKv6geW-z-36nj0sGEsJNhnvEM9IdoD7DJZY3EU8gKd3XINfA3871azUPpSnDXOLl6sAKa2oGTMW3uFB-6ro1GzVla6YIwc5C5w3-KQOZHJRrpzdDqy0BInlbxC4BgRXxnnxWWuFaPFnSWmNoU_JqNGQ2FTYPrJQUtrP6wfgPmUGywSIdeSTt6j5PUcBrwHalWEEgkrLm9pD_qnFaTe-R4v6M4WPSyMOC9kz0nPdtLIeeJJ86hS0QJnV96SGSuCvVrek9XZ0ekTIm0zj-b1X9lZSviyNutYMiDgFL5KoCq59Ur0W7i_WOZ99ficBSm4MOekcWFoOTgzd0es6rMLw1JmFQbc5wbwh2ciBV_UxvM5t-KpN1CIMvI8-hPRUlcE2i1MoNBlJecb5vDRSh7MOIIK_YKxsDZgK9asEj02f8Ht01er4dOjXZdNT2SCb7gkIM2ShT6IEcYJfCcpFy-ItSqsOul3sBhs-rt-5qjmKyleXTqohnwtQJcFEEGMQB8RntVn_S2egXE9eAuk63GvFURz48VCZSBkz2uPutD6ySNNZZktCttCxIUp_pzkvQsNq3XCWMYLulxQIvSv9hsGXM4JMrB75K7LmpyvwaLXgukpSJo99MN-7aXkGziC0YFjIM0_sYr4OkN9N7TB8q_yHl2dXuT-lqD_Ho3i9XiCRFpYuXWpj-U2ZrYkz8AaByH6oNNyD-r6yTgq_zYTEMKa7lBbrU4zvipsXFez0xBWc4IVvtFrKzwTs5fv3xwuxjfSCUqG9eFj9HMru20tgXdWuda_lHsVter07UcVcT7AEs1k2n-6TnUlbVP1sLh8WgvgCysxfPBsE7hxy1vNWbyLRIfEfM8zFGOxsgkUslj3-hhCUko4yzhWXMS1Qu6ONriA6AAez61lUeIdvLVNQyslesyGyR_XXsKL25-2Pd_DlvPnGawaT_rfbZNNmXt-VC_vDi57hdhrZmW3zFaSzS-xR14lWrkWYmVVyOoSj24rDkGvKEXe_7NXy1m00]--></g></svg>